<?xml version="1.0" encoding="UTF-8"?>
<svg xmlns="http://www.w3.org/2000/svg" xmlns:xlink="http://www.w3.org/1999/xlink" width="96pt" height="96pt" viewBox="0 0 96 96" version="1.1">
<g id="surface1">
<path style=" stroke:none;fill-rule:nonzero;fill:#FFC107;fill-opacity:1;" d="M 87.21875 40.164063 L 84 40.164063 L 84 40 L 48 40 L 48 56 L 70.609375 56 C 67.304688 65.3125 58.445313 72 48 72 C 34.742188 72 24 61.257813 24 48 C 24 34.742188 34.742188 24 48 24 C 54.117188 24 59.6875 26.304688 63.921875 30.078125 L 75.234375 18.765625 C 68.09375 12.109375 58.539063 8 48 8 C 25.90625 8 8 25.90625 8 48 C 8 70.09375 25.90625 88 48 88 C 70.09375 88 88 70.09375 88 48 C 88 45.320313 87.726563 42.703125 87.21875 40.164063 Z "/>
<path style=" stroke:none;fill-rule:nonzero;fill:#FF3D00;fill-opacity:1;" d="M 12.609375 29.382813 L 25.757813 39.023438 C 29.3125 30.21875 37.921875 24 48 24 C 54.117188 24 59.6875 26.304688 63.921875 30.078125 L 75.234375 18.765625 C 68.09375 12.109375 58.539063 8 48 8 C 32.632813 8 19.3125 16.671875 12.609375 29.382813 Z "/>
<path style=" stroke:none;fill-rule:nonzero;fill:#4CAF50;fill-opacity:1;" d="M 48 88 C 58.328125 88 67.71875 84.046875 74.820313 77.617188 L 62.4375 67.140625 C 58.421875 70.179688 53.429688 72 48 72 C 37.59375 72 28.765625 65.367188 25.4375 56.109375 L 12.390625 66.15625 C 19.007813 79.109375 32.453125 88 48 88 Z "/>
<path style=" stroke:none;fill-rule:nonzero;fill:#1976D2;fill-opacity:1;" d="M 87.21875 40.164063 L 84 40.164063 L 84 40 L 48 40 L 48 56 L 70.609375 56 C 69.023438 60.476563 66.140625 64.328125 62.429688 67.140625 C 62.4375 67.140625 62.4375 67.140625 62.4375 67.140625 L 74.820313 77.617188 C 73.945313 78.40625 88 68 88 48 C 88 45.320313 87.726563 42.703125 87.21875 40.164063 Z "/>
</g>
</svg>
