<?xml version="1.0" encoding="UTF-8"?>
<svg xmlns="http://www.w3.org/2000/svg" xmlns:xlink="http://www.w3.org/1999/xlink" width="96pt" height="96pt" viewBox="0 0 96 96" version="1.1">
<g id="surface1">
<path style=" stroke:none;fill-rule:nonzero;fill:#3F51B5;fill-opacity:1;" d="M 84 74 C 84 79.523438 79.523438 84 74 84 L 22 84 C 16.476563 84 12 79.523438 12 74 L 12 22 C 12 16.476563 16.476563 12 22 12 L 74 12 C 79.523438 12 84 16.476563 84 22 Z "/>
<path style=" stroke:none;fill-rule:nonzero;fill:#FFFFFF;fill-opacity:1;" d="M 68.734375 50 L 62 50 L 62 76 L 52 76 L 52 50 L 46 50 L 46 42 L 52 42 L 52 37.179688 C 52.007813 30.164063 54.921875 26 63.1875 26 L 70 26 L 70 34 L 65.429688 34 C 62.210938 34 62 35.203125 62 37.445313 L 62 42 L 70 42 Z "/>
</g>
</svg>
